# xmcd
# Copyright (c) 1998 CDDB Inc.
#
# Track frame offsets:
#	150
#	19802
#	37577
#
# Disc length: 658 seconds
#
# Revision: 3
# Processed by: cddbd v1.4PL0 Copyright (c) Steve Scherf et al.
# Submitted via: audiograbber 1.70
#
DISCID=14029003
DTITLE=Keb Mo' - Slow Down sampler
DYEAR=1900
DGENRE=
TTITLE0=I Was Wrong
TTITLE1=Everything I Need
TTITLE2=What a Wonderful World
EXTD=
EXTT0=
EXTT1=
EXTT2=
PLAYORDER=
